<svg xmlns="http://www.w3.org/2000/svg" viewBox="0 0 400 300" width="400" height="300">
  <defs>
    <linearGradient id="houseBg" x1="0%" y1="0%" x2="100%" y2="100%">
      <stop offset="0%" style="stop-color:#f8fafc;stop-opacity:1" />
      <stop offset="100%" style="stop-color:#e2e8f0;stop-opacity:1" />
    </linearGradient>
  </defs>
  
  <!-- Background -->
  <rect width="400" height="300" fill="url(#houseBg)" />
  
  <!-- Ground -->
  <rect x="0" y="250" width="400" height="50" fill="#86efac" />
  
  <!-- House main structure -->
  <rect x="50" y="120" width="300" height="150" fill="#f3f4f6" stroke="#d1d5db" stroke-width="2" />
  
  <!-- Roof -->
  <polygon points="50,120 200,60 350,120" fill="#ef4444" stroke="#dc2626" stroke-width="2" />
  
  <!-- Door -->
  <rect x="170" y="200" width="60" height="70" fill="#8b5cf6" stroke="#7c3aed" stroke-width="2" />
  <circle cx="215" cy="235" r="3" fill="#fbbf24" />
  
  <!-- Windows -->
  <rect x="80" y="150" width="60" height="50" fill="#dbeafe" stroke="#fba31d" stroke-width="2" />
  <rect x="260" y="150" width="60" height="50" fill="#dbeafe" stroke="#fba31d" stroke-width="2" />
  
  <!-- Window frames -->
  <line x1="110" y1="150" x2="110" y2="200" stroke="#fba31d" stroke-width="2" />
  <line x1="80" y1="175" x2="140" y2="175" stroke="#fba31d" stroke-width="2" />
  
  <line x1="290" y1="150" x2="290" y2="200" stroke="#fba31d" stroke-width="2" />
  <line x1="260" y1="175" x2="320" y2="175" stroke="#fba31d" stroke-width="2" />
  
  <!-- Chimney -->
  <rect x="280" y="70" width="25" height="60" fill="#6b7280" />
  
  <!-- Trees/landscaping -->
  <circle cx="30" cy="200" r="25" fill="#22c55e" />
  <rect x="27" y="200" width="6" height="25" fill="#8b5cf6" />
  
  <circle cx="370" cy="210" r="20" fill="#22c55e" />
  <rect x="367" y="210" width="6" height="20" fill="#8b5cf6" />
  
  <!-- Sun -->
  <circle cx="350" cy="50" r="20" fill="#fbbf24" opacity="0.9" />
</svg>