<svg width="20" height="21" viewBox="0 0 20 21" fill="none" xmlns="http://www.w3.org/2000/svg">
<path d="M5.15171 17.1666L4.34363 17.9999M14.8487 17.1666L15.6568 17.9999" stroke="#071658" stroke-width="1.5" stroke-linecap="round"/>
<path d="M2.72726 10.5V11.3333C2.72726 14.0832 2.72726 15.4581 3.55565 16.3124C4.38403 17.1667 5.7173 17.1667 8.38381 17.1667H11.6162C14.2827 17.1667 15.6159 17.1667 16.4444 16.3124C17.2727 15.4581 17.2727 14.0832 17.2727 11.3333V10.5" stroke="#071658" stroke-width="1.5" stroke-linecap="round" stroke-linejoin="round"/>
<path d="M1.9194 10.5H18.081" stroke="#071658" stroke-width="1.5" stroke-linecap="round"/>
<path d="M3.53516 10.5V5.10283C3.53516 3.94148 4.4481 3 5.57427 3C6.47794 3 7.27376 3.61332 7.52982 4.50701L7.57557 4.66667" stroke="#071658" stroke-width="1.5" stroke-linecap="round"/>
<path d="M6.76788 5.5001L8.78807 3.83344" stroke="#071658" stroke-width="1.5" stroke-linecap="round"/>
</svg>
