<svg width="20" height="21" viewBox="0 0 20 21" fill="none" xmlns="http://www.w3.org/2000/svg">
<path d="M18.3336 15.0834H1.66687" stroke="#071658" stroke-width="1.5" stroke-linecap="round" stroke-linejoin="round"/>
<path d="M18.3336 18V13.8333C18.3336 12.262 18.3336 11.4763 17.8454 10.9882C17.3572 10.5 16.5716 10.5 15.0002 10.5H5.00021C3.42886 10.5 2.64318 10.5 2.15503 10.9882C1.66687 11.4763 1.66687 12.262 1.66687 13.8333V18" stroke="#071658" stroke-width="1.5" stroke-linecap="round" stroke-linejoin="round"/>
<path d="M9.16669 10.5V9.01119C9.16669 8.69394 9.119 8.58781 8.87475 8.46281C8.36625 8.20244 7.74888 8 7.08331 8C6.41781 8 5.80046 8.20244 5.29188 8.46281C5.04768 8.58781 5 8.69394 5 9.01119V10.5" stroke="#071658" stroke-width="1.5" stroke-linecap="round"/>
<path d="M14.9998 10.5V9.01119C14.9998 8.69394 14.9521 8.58781 14.7079 8.46281C14.1994 8.20244 13.5821 8 12.9164 8C12.2509 8 11.6336 8.20244 11.1251 8.46281C10.8808 8.58781 10.8331 8.69394 10.8331 9.01119V10.5" stroke="#071658" stroke-width="1.5" stroke-linecap="round"/>
<path d="M17.5 10.5V6.63381C17.5 6.05744 17.5 5.76926 17.3399 5.49711C17.1798 5.22496 16.9517 5.08409 16.4953 4.80236C14.6557 3.66648 12.4161 3 10 3C7.58388 3 5.34428 3.66648 3.50465 4.80236C3.04837 5.08409 2.82022 5.22496 2.66011 5.49711C2.5 5.76926 2.5 6.05744 2.5 6.63381V10.5" stroke="#071658" stroke-width="1.5" stroke-linecap="round"/>
</svg>
