<svg width="24" height="28" viewBox="0 0 24 28" fill="none" xmlns="http://www.w3.org/2000/svg">
<path d="M10.1035 24.21C10.3659 25.0877 11.2983 26.0616 12.584 25.9043L12.7393 25.876C13.1072 25.7872 13.5093 25.5461 13.8389 25.2363C14.1804 24.9154 14.4225 24.5387 14.4785 24.21H10.1035ZM5.0293 20.168C5.02421 20.172 5.01248 20.1839 4.99512 20.2285C4.86031 20.5741 4.72845 20.9267 4.58008 21.2715L4.4248 21.6133C4.27829 21.9218 4.09185 22.2148 3.91699 22.5049H20.6748C20.1831 21.7976 19.8334 21.0156 19.5693 20.1924V20.1914L19.5566 20.1641C19.5557 20.1637 19.5518 20.162 19.543 20.1611C19.5321 20.1601 19.5191 20.1602 19.499 20.1602C14.6927 20.1608 9.88641 20.1609 5.08008 20.1582C5.04107 20.1582 5.03175 20.1661 5.0293 20.168ZM18.0771 8.88379C16.5146 5.76292 12.8879 4.38465 9.80859 5.73145C7.30326 6.82751 5.71946 9.3251 5.7207 12.1885C5.72133 13.3468 5.7388 14.5098 5.71387 15.6709C5.69927 16.3467 5.62076 17.0224 5.55957 17.6885C5.53629 17.9424 5.48927 18.1983 5.44824 18.4512C10.0164 18.4515 14.5726 18.4512 19.1338 18.4512C18.9456 17.4635 18.8537 16.4666 18.8564 15.458C18.8596 14.2597 18.858 13.0617 18.8359 11.8643C18.8167 10.8101 18.5452 9.8186 18.0771 8.88379ZM12.2627 2.58789C11.6111 2.60928 10.9984 3.06598 10.7998 3.65918C11.7975 3.46221 12.7818 3.46706 13.7715 3.65625C13.5243 3.00581 12.9004 2.56669 12.2627 2.58789ZM23.6924 23.4268L23.6875 23.4414C23.5922 23.7351 23.5014 23.9392 23.3379 24.0605C23.1737 24.1822 22.9554 24.207 22.6543 24.207H16.1641C16.1638 24.2083 16.1634 24.2096 16.1631 24.2109V24.2119C15.7723 25.8966 14.8086 27.0273 13.1973 27.5049C13.0181 27.5581 12.8236 27.585 12.6553 27.6201L12.6455 27.623H12.6348C12.4051 27.6227 12.1744 27.6221 11.9434 27.6221H11.9326L11.9219 27.6201C11.7327 27.5787 11.5185 27.5458 11.3193 27.4854C9.79886 27.0221 8.86777 25.9487 8.4502 24.3721C8.43367 24.3097 8.42405 24.2704 8.41406 24.2412C8.40764 24.2224 8.40287 24.2152 8.40137 24.2129C8.40585 24.2168 8.40633 24.2129 8.38184 24.21C8.35584 24.2069 8.31894 24.2061 8.25781 24.2061C6.08575 24.2061 3.91331 24.2067 1.74121 24.2061C1.52194 24.206 1.33009 24.1412 1.18359 24.0127C1.03723 23.8843 0.944822 23.6996 0.911133 23.4746C0.860227 23.1353 0.990172 22.8574 1.25488 22.667C1.32171 22.6188 1.39208 22.5776 1.45898 22.5391C1.52717 22.4998 1.59156 22.464 1.65332 22.4238C2.2831 22.0145 2.71008 21.4133 3.04688 20.7178C3.47306 19.8372 3.71429 18.8923 3.88184 17.917C4.05401 16.9156 4.11443 15.9043 4.10156 14.8848C4.09022 13.962 4.10114 13.0363 4.09863 12.1162C4.09321 10.3369 4.58785 8.71932 5.54004 7.25879C6.41378 5.9189 7.56756 4.92369 8.97559 4.25879C9.01518 4.2401 9.02861 4.22644 9.03516 4.2168C9.04149 4.20727 9.04941 4.1881 9.05078 4.14062C9.09525 2.53739 10.3162 1.13031 11.8438 0.928711C13.5857 0.699205 15.1176 1.85855 15.46 3.6543V3.65527C15.4759 3.73947 15.4831 3.82473 15.4893 3.90332L15.5156 4.12988L15.5459 4.20215C15.5623 4.22781 15.576 4.2391 15.5801 4.24121H15.5811C17.6946 5.26396 19.1681 6.91801 19.9863 9.20801C20.33 10.1703 20.4763 11.1717 20.4795 12.1934C20.4836 13.3906 20.4564 14.5798 20.4863 15.7715C20.5268 17.3782 20.7699 18.9449 21.3877 20.4219C21.7273 21.2331 22.1828 21.9381 22.8984 22.415V22.416C22.9486 22.4496 22.9811 22.4738 23.0176 22.4893L23.1455 22.5498C23.2696 22.6159 23.3798 22.6983 23.4688 22.8027C23.5881 22.9428 23.6659 23.1172 23.6924 23.332L23.6934 23.3447H23.6924V23.4268Z" fill="#347BC5" stroke="#347BC5" stroke-width="0.2"/>
<path d="M12.2932 6.06201C12.7488 6.05467 13.0956 6.44311 13.1057 6.90869C13.1151 7.35576 12.7548 7.74219 12.3137 7.75927C11.4571 7.79275 10.7216 8.01678 10.1077 8.43213C9.49343 8.84777 8.99463 9.45938 8.61841 10.2759C8.36844 10.8182 8.26551 11.4045 8.26489 12.0151C8.26441 12.4576 7.95417 12.7989 7.52466 12.854C7.18694 12.8971 6.85244 12.6749 6.71606 12.3462L6.67017 12.1997C6.6546 12.1273 6.65002 12.0543 6.64771 11.9868C6.64526 11.9153 6.64557 11.8574 6.64185 11.7954L6.64087 11.7856H6.64185C6.69054 10.5135 7.07942 9.3737 7.81763 8.37451C8.75335 7.10804 9.98961 6.35962 11.4954 6.1167C11.7609 6.07399 12.0315 6.066 12.2932 6.06201Z" fill="#347BC5" stroke="#347BC5" stroke-width="0.2"/>
</svg>
