<svg width="36" height="37" viewBox="0 0 36 37" fill="none" xmlns="http://www.w3.org/2000/svg">
<rect y="0.5" width="36" height="36" rx="18" fill="white"/>
<path d="M27.2857 12.0714H23.7143V10.8214C23.7143 10.7232 23.6339 10.6429 23.5357 10.6429H22.2857C22.1875 10.6429 22.1071 10.7232 22.1071 10.8214V12.0714H18.8036V10.8214C18.8036 10.7232 18.7232 10.6429 18.625 10.6429H17.375C17.2768 10.6429 17.1964 10.7232 17.1964 10.8214V12.0714H13.8929V10.8214C13.8929 10.7232 13.8125 10.6429 13.7143 10.6429H12.4643C12.3661 10.6429 12.2857 10.7232 12.2857 10.8214V12.0714H8.71429C8.3192 12.0714 8 12.3906 8 12.7857V25.6429C8 26.0379 8.3192 26.3571 8.71429 26.3571H27.2857C27.6808 26.3571 28 26.0379 28 25.6429V12.7857C28 12.3906 27.6808 12.0714 27.2857 12.0714ZM16.0357 22.4286C16.0357 22.5268 15.9554 22.6071 15.8571 22.6071H11.75C11.6518 22.6071 11.5714 22.5268 11.5714 22.4286V21.3571C11.5714 21.2589 11.6518 21.1786 11.75 21.1786H15.8571C15.9554 21.1786 16.0357 21.2589 16.0357 21.3571V22.4286ZM16.0357 19.3929C16.0357 19.4911 15.9554 19.5714 15.8571 19.5714H11.75C11.6518 19.5714 11.5714 19.4911 11.5714 19.3929V18.3214C11.5714 18.2232 11.6518 18.1429 11.75 18.1429H15.8571C15.9554 18.1429 16.0357 18.2232 16.0357 18.3214V19.3929ZM24.3951 17.3549L20.7121 22.4598C20.6792 22.5055 20.6359 22.5426 20.5859 22.5682C20.5358 22.5939 20.4804 22.6072 20.4241 22.6072C20.3679 22.6072 20.3124 22.5939 20.2624 22.5682C20.2123 22.5426 20.169 22.5055 20.1362 22.4598L17.5871 18.9286C17.5022 18.8103 17.5871 18.6451 17.7321 18.6451H18.9576C19.0714 18.6451 19.1786 18.7009 19.2455 18.7924L20.4241 20.4241L22.7388 17.2165C22.8058 17.1228 22.9129 17.0692 23.0268 17.0692H24.25C24.3951 17.0714 24.4799 17.2366 24.3951 17.3549Z" fill="#071658"/>
</svg>
