<svg width="36" height="36" viewBox="0 0 36 36" fill="none" xmlns="http://www.w3.org/2000/svg">
<rect width="36" height="36" rx="18" fill="white"/>
<path d="M8.3047 8.0822C8.21486 8.12908 8.12501 8.21892 8.07813 8.31267C8 8.46501 8 8.52361 8 18.0001C8 27.4805 8 27.5352 8.07813 27.6875C8.12891 27.7891 8.21095 27.8711 8.31252 27.9219C8.46487 28 8.52737 28 15.4887 28C22.0984 28 22.5203 27.9961 22.6492 27.9297C22.7235 27.8945 22.825 27.8047 22.8719 27.7305L22.9618 27.5977V25.0782V22.5625L22.6844 22.8243C21.864 23.5938 20.9382 24.0469 19.8756 24.1875C19.5788 24.2266 19.4655 24.2618 19.3092 24.3594C18.8443 24.6602 18.149 24.8399 17.4536 24.8516C17.0161 24.8555 16.9927 24.8516 16.7349 24.7227C16.5278 24.6211 16.4458 24.5547 16.3559 24.4141C16.2192 24.1993 16.1645 24.0196 16.1645 23.7891C16.1645 23.6329 16.1567 23.625 16.0512 23.625C15.9106 23.625 15.6137 23.7813 15.3676 23.9844C15.0512 24.2539 14.7855 24.293 14.516 24.1172C14.3128 23.9844 14.2269 23.625 14.348 23.3946C14.4261 23.2383 14.766 22.9454 15.0668 22.7657C15.4418 22.5469 15.7504 22.4532 16.1176 22.4532C16.856 22.4532 17.2622 22.7891 17.3247 23.4454L17.3482 23.7071L17.606 23.6836C17.899 23.6563 18.3834 23.5352 18.5475 23.4493C18.6646 23.3868 18.6725 23.3672 18.7232 22.9415C18.7857 22.4454 19.0162 21.7579 19.278 21.2852C19.5553 20.793 19.8913 20.418 21.4148 18.8985L22.9618 17.3556V15.3478C22.9618 13.379 22.9618 13.34 22.8797 13.2072C22.7117 12.9337 22.7821 12.9454 20.4812 12.922C18.2037 12.9025 18.2935 12.9103 18.1295 12.6603C18.067 12.5626 18.0591 12.3751 18.0396 10.4611C18.0201 8.37517 18.0201 8.37127 17.9341 8.25017C17.7427 7.98455 18.067 8.00017 13.012 8.00017C8.5469 8.00408 8.44534 8.00408 8.3047 8.0822ZM13.8831 14.3517C14.2699 14.5353 14.2738 15.1642 13.8909 15.3712C13.7738 15.4337 13.6253 15.4415 12.4338 15.4532C10.9963 15.465 10.8517 15.4532 10.6837 15.2696C10.4337 15.0079 10.4845 14.547 10.7853 14.3673C10.9025 14.2931 10.9924 14.2892 12.3284 14.2892C13.555 14.2892 13.7698 14.297 13.8831 14.3517ZM20.1452 16.8595C20.3561 16.9649 20.4421 17.1095 20.4421 17.3673C20.4421 17.629 20.3444 17.797 20.1335 17.8985C20.0124 17.9571 19.5944 17.961 15.4457 17.9532C10.9181 17.9415 10.8947 17.9415 10.7892 17.8595C10.5978 17.7188 10.5236 17.586 10.5236 17.3829C10.5236 17.1524 10.6212 16.9806 10.8087 16.8712C10.9494 16.7892 10.9572 16.7892 15.4809 16.7892C19.7194 16.7892 20.0202 16.7931 20.1452 16.8595ZM17.6333 19.3712C17.7544 19.4298 17.8208 19.4962 17.8794 19.6173C17.9849 19.8282 17.981 19.9337 17.8755 20.1485C17.7037 20.4844 17.9576 20.461 14.1917 20.4532C10.9416 20.4415 10.8673 20.4415 10.7658 20.3633C10.5978 20.2423 10.4884 19.9844 10.5197 19.7969C10.5509 19.6094 10.6994 19.418 10.8713 19.3438C10.965 19.3009 11.6213 19.293 14.2269 19.2891C17.4224 19.2891 17.4693 19.2891 17.6333 19.3712Z" fill="#071658"/>
<path d="M19.2114 10.0391V11.7461L20.9225 11.7578C21.86 11.7656 22.6335 11.7695 22.6374 11.7695C22.6413 11.7656 21.8717 10.9922 20.9303 10.0508L19.2114 8.33206V10.0391Z" fill="#071658"/>
<path d="M23.8562 18.1058C22.1022 19.8636 20.606 21.3909 20.5279 21.4964C20.3169 21.7972 20.0786 22.2971 19.9849 22.6487C19.938 22.8206 19.9107 22.9729 19.9263 22.9846C19.9888 23.0471 20.7193 22.7815 21.1451 22.5354C21.4303 22.3753 21.7389 22.0784 24.7312 19.098C28.3838 15.4535 28.0986 15.7855 27.8955 15.3792C27.7509 15.1019 27.5322 14.9456 27.2509 14.9261L27.0439 14.9105L23.8562 18.1058Z" fill="#071658"/>
</svg>
