<svg width="30" height="30" viewBox="0 0 30 30" fill="none" xmlns="http://www.w3.org/2000/svg">
<path fill-rule="evenodd" clip-rule="evenodd" d="M0 15.0838C0 22.5419 5.41666 28.743 12.5 30V19.1666H8.75V15H12.5V11.6666C12.5 7.91665 14.9166 5.83332 18.3334 5.83332C19.4166 5.83332 20.5834 5.99999 21.6666 6.16665V9.99999H19.75C17.9166 9.99999 17.5 10.9167 17.5 12.0833V15H21.5L20.8334 19.1666H17.5V30C24.5834 28.743 30 22.5419 30 15.0838C30 6.78771 23.25 0 15 0C6.75 0 0 6.78771 0 15.0838H0Z" fill="#FBA31D"/>
</svg>
