<svg width="36" height="36" viewBox="0 0 36 36" fill="none" xmlns="http://www.w3.org/2000/svg">
<rect width="36" height="36" rx="18" fill="white"/>
<path d="M12.1064 9.23133L6.01873 12.4679L6.00312 12.9699C5.99272 13.3411 6.00832 13.4771 6.04995 13.4771C6.08637 13.4771 8.26127 12.3843 10.8784 11.0457C13.5008 9.71238 16.2376 8.3163 16.9556 7.95029L18.272 7.28101V6.63787C18.272 6.28754 18.2564 5.99996 18.2356 5.99996C18.2096 5.99996 15.4571 7.45878 12.1064 9.23133Z" fill="#071658"/>
<path d="M15.2806 9.56076C14.0526 10.1934 11.9038 11.2915 10.5093 12.0026L7.97021 13.2941V20.3372V27.3856H9.1149H10.2596V24.0444C10.2596 20.7451 10.2596 20.7032 10.3688 20.5673L10.4729 20.4313H12.7571C14.8487 20.4313 15.0464 20.4366 15.1453 20.5202C15.2545 20.6144 15.2545 20.6196 15.2702 23.9869L15.2806 27.3594L16.4409 27.3751L17.5959 27.3856V17.8954C17.5959 12.6771 17.5803 8.40521 17.5595 8.41044C17.5335 8.41044 16.5137 8.92808 15.2806 9.56076ZM12.3824 15.5268C12.4813 15.6261 12.4657 16.4313 12.3616 16.5307C12.2628 16.6353 11.4095 16.651 11.3106 16.5516C11.243 16.4836 11.2221 15.5634 11.2846 15.5006C11.347 15.4379 12.3148 15.4588 12.3824 15.5268ZM14.2556 15.5268C14.292 15.5634 14.318 15.7568 14.318 16.0392C14.318 16.3215 14.292 16.515 14.2556 16.5516C14.2139 16.5934 14.0162 16.6144 13.7196 16.6144C13.4231 16.6144 13.2253 16.5934 13.1837 16.5516C13.1473 16.515 13.1213 16.3215 13.1213 16.0392C13.1213 15.7568 13.1473 15.5634 13.1837 15.5268C13.267 15.4431 14.1723 15.4431 14.2556 15.5268ZM12.3616 17.43C12.4709 17.5398 12.4813 18.3503 12.372 18.4392C12.3252 18.481 12.1223 18.4967 11.7893 18.4862L11.2742 18.4706L11.2586 17.9791C11.2482 17.6653 11.2638 17.4666 11.3054 17.4196C11.3939 17.3098 12.2524 17.315 12.3616 17.43ZM14.2191 17.3987C14.3076 17.4457 14.318 17.5137 14.318 17.9111C14.318 18.1987 14.2972 18.3921 14.2556 18.434C14.1723 18.5176 13.267 18.5176 13.1837 18.434C13.1421 18.3921 13.1213 18.1987 13.1213 17.9111C13.1213 17.5346 13.1369 17.4457 13.2149 17.4039C13.3294 17.3307 14.0891 17.3307 14.2191 17.3987Z" fill="#071658"/>
<path d="M18.2822 11.2078L18.2978 11.8143L22.7205 14.1098C25.1555 15.3699 27.1587 16.4 27.1847 16.4052C27.2055 16.4052 27.2211 16.1542 27.2211 15.8405V15.281L26.5031 14.9098C26.1129 14.7006 24.2918 13.7542 22.4603 12.7973C20.6288 11.8405 18.9378 10.9568 18.6985 10.8313L18.2666 10.6013L18.2822 11.2078Z" fill="#071658"/>
<path d="M18.2725 19.9869V27.3856H18.8084C19.209 27.3856 19.4171 27.3594 19.6357 27.281C19.797 27.2235 20.0571 27.1608 20.2132 27.1451L20.4942 27.1137L20.5826 26.8366C20.7023 26.4549 21.0093 26 21.3683 25.6706C21.8834 25.1947 22.4401 24.9804 23.1322 24.9804C23.8398 24.9804 24.4225 25.2104 24.974 25.6915L25.2446 25.932L25.5048 25.8431L25.7649 25.7542L25.7545 21.0954L25.7389 16.4313L22.0447 14.5124C20.0155 13.4562 18.3349 12.5934 18.3141 12.5934C18.2881 12.5882 18.2725 15.9189 18.2725 19.9869ZM23.4704 19.4588C23.5744 19.5529 23.5796 19.6052 23.5796 20.9333V22.3085L23.4443 22.413C23.3143 22.5176 23.2414 22.5228 22.0187 22.5228C20.796 22.5228 20.7231 22.5176 20.593 22.413L20.4578 22.3085V20.9333C20.4578 19.4693 20.4578 19.4693 20.7179 19.3699C20.7595 19.3542 21.3735 19.3438 22.0759 19.349C23.257 19.3594 23.3715 19.3699 23.4704 19.4588Z" fill="#071658"/>
<path d="M21.1343 20.9543V21.8432H22.0188H22.9033V20.9543V20.0654H22.0188H21.1343V20.9543Z" fill="#071658"/>
<path d="M10.9464 24.2326L10.9621 27.3594L12.7727 27.3751L14.5782 27.3856V24.2483V21.1111H12.7571H10.936L10.9464 24.2326Z" fill="#071658"/>
<path d="M22.5021 25.7542C21.8309 25.9948 21.3418 26.549 21.1545 27.281C21.0401 27.7516 20.9776 27.8039 20.5874 27.8039C19.4843 27.8039 18.6362 28.6248 18.6362 29.6967V30H24.3024H29.9686L29.9894 29.8745C30.031 29.6601 29.9426 29.1791 29.8073 28.881C29.6408 28.515 29.3026 28.1752 28.9175 27.9869C28.6522 27.8562 28.5377 27.8353 28.0486 27.8144C27.4034 27.7882 27.393 27.7778 27.2578 27.3333C27.0184 26.5386 26.2171 26.2092 25.4783 26.6013C25.317 26.685 25.1453 26.7582 25.1037 26.7582C25.0568 26.7582 24.8643 26.5856 24.6666 26.3712C24.1879 25.8641 23.8445 25.6967 23.215 25.6758C22.8872 25.6601 22.7051 25.681 22.5021 25.7542Z" fill="#071658"/>
<path d="M6.35742 28.5882V29.1111H12.1797H18.0019L18.0904 28.8497C18.1372 28.7033 18.2569 28.468 18.3506 28.3268L18.5275 28.0654H12.4398H6.35742V28.5882Z" fill="#071658"/>
</svg>
