<svg width="28" height="28" viewBox="0 0 28 28" fill="none" xmlns="http://www.w3.org/2000/svg">
<path d="M26.9631 12.6123C26.9163 11.5467 26.7102 10.5085 26.3576 9.50638C24.9469 5.49847 22.1744 2.89136 18.1517 1.58975C17.2391 1.29464 16.3035 1.0997 15.3415 1.04839C15.197 1.04058 15.0539 1.01663 14.9099 1.00002C14.2912 1.00002 13.673 1.00002 13.0543 1.00002C12.4195 1.08308 11.7789 1.13487 11.1514 1.25507C9.8291 1.50865 8.56538 1.9474 7.38808 2.60797C4.75223 4.08645 2.85713 6.2167 1.78726 9.05443C1.42982 10.0023 1.18372 10.9814 1.09973 11.9967C1.07434 12.3001 1.03381 12.6026 1.0006 12.9055C1.0006 13.3951 1.0006 13.8846 1.00011 14.3742C1.10607 15.5756 1.30872 16.7517 1.71059 17.8994C2.47527 20.0829 3.76488 21.8824 5.5506 23.3335C6.95642 24.4753 8.54536 25.2742 10.2969 25.7242C11.0733 25.9235 11.8683 26.0735 12.6637 26.1673C13.3361 26.2465 14.0241 26.2543 14.7014 26.2196C15.717 26.1678 16.7254 26.0266 17.7054 25.733C17.9911 25.6474 18.2626 25.6851 18.5316 25.8043C19.3476 26.1654 20.1684 26.5152 20.9805 26.8841C21.7017 27.2114 22.2481 26.7834 22.4249 26.3066C22.4791 26.16 22.5113 25.9973 22.5167 25.8409C22.5406 25.1124 22.5484 24.3835 22.5679 23.655C22.5767 23.3286 22.7339 23.0775 22.9747 22.8615C24.1876 21.7729 25.13 20.4816 25.8205 19.0075C26.237 18.1183 26.5617 17.1943 26.7248 16.225C26.8445 15.5151 26.9099 14.7968 26.9998 14.082C26.9861 14.0371 26.9602 13.9921 26.9602 13.9467C26.9587 13.5021 26.9612 13.057 26.9631 12.6123ZM11.7916 17.6482C10.9244 17.6497 10.3452 17.3009 9.93458 16.6466C9.15329 15.4022 8.3681 14.1597 7.58487 12.9167C7.12635 12.1887 6.66393 11.4627 6.2103 10.7313C6.00619 10.4025 6.03744 10.1166 6.27817 9.89627C6.52135 9.67348 6.80895 9.67494 7.11805 9.90018C7.16395 9.9339 7.20936 9.9681 7.25478 10.0023C8.53022 10.9687 9.80322 11.9381 11.0821 12.9006C11.5391 13.2446 11.8121 13.2143 12.2145 12.9075C13.1764 12.1726 14.1506 11.4544 15.1159 10.7244C15.4641 10.4611 15.8538 10.3223 16.2849 10.3179C17.0589 10.3101 17.6292 10.6726 18.036 11.3166C18.9413 12.7516 19.8466 14.1866 20.7519 15.6216C21.0942 16.1639 21.4414 16.7033 21.7759 17.2505C22.0259 17.6595 21.8335 18.1178 21.3814 18.2184C21.1309 18.2741 20.9463 18.1412 20.7617 18.0005C19.4697 17.016 18.1761 16.0325 16.8831 15.0489C16.5223 14.7748 16.1336 14.7719 15.7708 15.0436C14.7956 15.774 13.8224 16.5079 12.8458 17.2364C12.5089 17.4885 12.1402 17.6634 11.7916 17.6482Z" stroke="#C868D7" stroke-width="2" stroke-miterlimit="10" stroke-linecap="round" stroke-linejoin="round"/>
</svg>
