<svg width="20" height="21" viewBox="0 0 20 21" fill="none" xmlns="http://www.w3.org/2000/svg">
<path d="M13.7621 14.2625C14.2411 13.7835 14.1616 11.7486 14.1616 11.7486M13.7621 14.2625C13.2831 14.7415 11.2482 14.6617 11.2482 14.6617M13.7621 14.2625L10.8331 11.3334M6.23734 6.73771C6.71637 6.25869 8.75131 6.33841 8.75131 6.33841M6.23734 6.73771C5.75834 7.21669 5.83811 9.25162 5.83811 9.25162M6.23734 6.73771L9.16643 9.66675" stroke="#071658" stroke-width="1.5" stroke-linecap="round" stroke-linejoin="round"/>
<path d="M2.08313 10.5001C2.08313 6.76812 2.08313 4.90217 3.24249 3.7428C4.40187 2.58344 6.26787 2.58344 9.99981 2.58344C13.7317 2.58344 15.5977 2.58344 16.7571 3.7428C17.9164 4.90217 17.9164 6.76812 17.9164 10.5001C17.9164 14.232 17.9164 16.098 16.7571 17.2574C15.5977 18.4167 13.7317 18.4167 9.99981 18.4167C6.26787 18.4167 4.40187 18.4167 3.24249 17.2574C2.08313 16.098 2.08313 14.232 2.08313 10.5001Z" stroke="#071658" stroke-width="1.5"/>
</svg>
