<svg width="30" height="24" viewBox="0 0 30 24" fill="none" xmlns="http://www.w3.org/2000/svg">
<path d="M30 2.84166C28.8968 3.32286 27.7116 3.64799 26.4657 3.79495C27.7367 3.04585 28.7118 1.85716 29.1716 0.442181C27.9825 1.13666 26.6652 1.64127 25.2634 1.91178C24.1403 0.736101 22.5416 0 20.7712 0C17.3729 0 14.6168 2.71291 14.6168 6.06048C14.6168 6.53387 14.6723 6.99426 14.7754 7.43904C9.65824 7.18544 5.12508 4.77295 2.08887 1.10805C1.56038 2.00542 1.25649 3.04585 1.25649 4.1539C1.25649 6.25556 2.34387 8.11142 3.9941 9.19736C2.98467 9.16485 2.03602 8.89304 1.20629 8.43915V8.51718C1.20629 11.4525 3.32687 13.9014 6.14375 14.458C5.62583 14.5959 5.0828 14.6687 4.52259 14.6687C4.12622 14.6687 3.7391 14.6323 3.36387 14.562C4.14736 16.968 6.41989 18.7211 9.11389 18.768C7.00652 20.3936 4.35215 21.3625 1.46921 21.3625C0.972428 21.3625 0.482249 21.3339 0 21.278C2.72439 22.9986 5.95878 24 9.43363 24C20.7566 24 26.9466 14.7688 26.9466 6.76277C26.9466 6.50266 26.94 6.23995 26.9281 5.97985C28.1304 5.12409 29.1742 4.05896 29.9974 2.84556L30 2.84166Z" fill="#FBA31D"/>
</svg>
