<svg width="30" height="20" viewBox="0 0 30 20" fill="none" xmlns="http://www.w3.org/2000/svg">
<path d="M29.3708 3.13803C29.2056 2.53918 28.8758 1.99165 28.4145 1.55035C27.953 1.10905 27.3764 0.789478 26.7421 0.623675C24.395 0.00610987 14.9909 0.00610971 14.9909 0.00610971C11.0697 -0.0381717 7.14951 0.158289 3.25548 0.594267C2.621 0.77218 2.04524 1.09911 1.58256 1.5442C1.11988 1.98928 0.78553 2.53781 0.611084 3.13803C0.190386 5.40528 -0.0138414 7.70338 0.000839375 10.0047C-0.0148481 12.3061 0.189387 14.6043 0.611084 16.8715C0.78194 17.47 1.11556 18.0166 1.57919 18.4575C2.04282 18.8983 2.62049 19.2182 3.25548 19.3858C5.63388 20.0033 14.9909 20.0033 14.9909 20.0033C18.9174 20.0477 22.8429 19.8512 26.7421 19.4152C27.3764 19.2494 27.953 18.9298 28.4145 18.4885C28.8758 18.0472 29.2056 17.4997 29.3708 16.9009C29.8023 14.6347 30.0117 12.3362 29.9968 10.0342C30.0291 7.72175 29.8194 5.41191 29.3708 3.13803ZM12.0023 14.2836V5.72591L19.826 10.0047L12.0023 14.2836Z" fill="#FBA31D"/>
</svg>
